# xmcd
#
# Track frame offsets: 
#        150
#        16620
#        31045
#        45999
#        59944
#        79645
#        97209
#        115535
#        133204
#        147713
#
# Disc length: 2172 seconds
#
# Revision: 5
# Processed by: cddbd v1.5.2PL0 Copyright (c) Steve Scherf et al.
# Submitted via: ExactAudioCopy v1.0b1
#
DISCID=84087a0a
DTITLE=Faith Hill - It Matters To Me
DYEAR=1995
DGENRE=Country
TTITLE0=Someone Else's Dream
TTITLE1=Let's Go To Vegas
TTITLE2=It Matters To Me
TTITLE3=Bed Of Roses
TTITLE4=A Man's Home Is His Castle
TTITLE5=You Can't Lose Me
TTITLE6=I Can't Do That Anymore
TTITLE7=A Room In My Heart
TTITLE8=You Will Be Mine
TTITLE9=Keep Walkin' On
EXTD=YEAR: 1995
EXTT0=
EXTT1=
EXTT2=
EXTT3=
EXTT4=
EXTT5=
EXTT6=
EXTT7=
EXTT8=
EXTT9=
PLAYORDER=
